{"url":"https://api.github.com/repos/k4yt3x/video2x/issues/676","repository_url":"https://api.github.com/repos/k4yt3x/video2x","labels_url":"https://api.github.com/repos/k4yt3x/video2x/issues/676/labels{/name}","comments_url":"https://api.github.com/repos/k4yt3x/video2x/issues/676/comments","events_url":"https://api.github.com/repos/k4yt3x/video2x/issues/676/events","html_url":"https://github.com/k4yt3x/video2x/issues/676","id":1296603675,"node_id":"I_kwDOB1EkMc5NSJob","number":676,"title":"LLVM ERROR: Broken function","user":{"login":"rsrrohit","id":3321741,"node_id":"MDQ6VXNlcjMzMjE3NDE=","avatar_url":"https://avatars.githubusercontent.com/u/3321741?v=4","gravatar_id":"","url":"https://api.github.com/users/rsrrohit","html_url":"https://github.com/rsrrohit","followers_url":"https://api.github.com/users/rsrrohit/followers","following_url":"https://api.github.com/users/rsrrohit/following{/other_user}","gists_url":"https://api.github.com/users/rsrrohit/gists{/gist_id}","starred_url":"https://api.github.com/users/rsrrohit/starred{/owner}{/repo}","subscriptions_url":"https://api.github.com/users/rsrrohit/subscriptions","organizations_url":"https://api.github.com/users/rsrrohit/orgs","repos_url":"https://api.github.com/users/rsrrohit/repos","events_url":"https://api.github.com/users/rsrrohit/events{/privacy}","received_events_url":"https://api.github.com/users/rsrrohit/received_events","type":"User","site_admin":false},"labels":[],"state":"closed","locked":false,"assignee":null,"assignees":[],"milestone":null,"comments":1,"created_at":"2022-07-06T23:42:25Z","updated_at":"2022-09-04T22:54:09Z","closed_at":"2022-09-04T22:54:09Z","author_association":"NONE","active_lock_reason":null,"body":"This is  the output I get when I run the video2x\r\n\r\n`2022-07-06 23:39:15.244 | INFO     | video2x.video2x.video2x:_get_video_info:143 - Reading input video information\r\n23:39:15.438983 | INFO     | Starting video decoder\r\n23:39:15.450156 | INFO     | Starting video encoder\r\n23:39:15.466056 | INFO     | Upscaler process 0 initiating\r\n23:39:15.474625 | INFO     | Upscaler process 2 initiating\r\n23:39:15.474100 | INFO     | Upscaler process 1 initiating\r\n23:39:15.474865 | INFO     | Upscaler process 3 initiating\r\n23:39:15.477220 | INFO     | Upscaler process 4 initiating\r\n[0 llvmpipe (LLVM 12.0.0, 256 bits)]  queueC=0[1]  queueG=0[1]  queueT=0[1]\r\n[0 llvmpipe (LLVM 12.0.0, 256 bits)]  bugsbn1=0  bugbilz=102  bugcopc=0  bugihfa=0\r\n[0 llvmpipe (LLVM 12.0.0, 256 bits)]  fp16-p/s/a=1/1/0  int8-p/s/a=1/1/0\r\n[0 llvmpipe (LLVM 12.0.0, 256 bits)]  subgroup=8  basic=1  vote=1  ballot=1  shuffle=0\r\nWARNING: lavapipe is not a conformant vulkan implementation, testing use only.\r\nInput #0, mov,mp4,m4a,3gp,3g2,mj2, from 'input.mp4':\r\n  Metadata:\r\n    major_brand     : isom\r\n    minor_version   : 512\r\n    compatible_brands: isomiso2avc1mp41\r\n    encoder         : Lavf54.63.104\r\n  Duration: 00:21:27.56, start: 0.000000, bitrate: 2121 kb/s\r\n    Stream #0:0(und): Video: h264 (High) (avc1 / 0x31637661), yuv420p, 720x540 [SAR 1:1 DAR 4:3], 1997 kb/s, 25 fps, 25 tbr,\r\n12800 tbn, 50 tbc (default)\r\n    Metadata:\r\n      handler_name    : VideoHandler\r\n    Stream #0:1(eng): Audio: aac (LC) (mp4a / 0x6134706D), 44100 Hz, stereo, fltp, 117 kb/s (default)\r\n    Metadata:\r\n      handler_name    : SoundHandler\r\nStream mapping:\r\n  Stream #0:0 -> #0:0 (h264 (native) -> rawvideo (native))\r\nOutput #0, rawvideo, to 'pipe:1':\r\n  Metadata:\r\n    major_brand     : isom\r\n    minor_version   : 512\r\n    compatible_brands: isomiso2avc1mp41\r\n    encoder         : Lavf58.29.100\r\n    Stream #0:0(und): Video: rawvideo (RGB[24] / 0x18424752), rgb24, 720x540 [SAR 1:1 DAR 4:3], q=2-31, 233280 kb/s, 25 fps, 25\r\ntbn, 25 tbc (default)\r\n    Metadata:\r\n      handler_name    : VideoHandler\r\n      encoder         : Lavc58.54.100 rawvideo\r\n\r\n[0 llvmpipe (LLVM 12.0.0, 256 bits)]  queueC=0[1]  queueG=0[1]  queueT=0[1]\r\n[0 llvmpipe (LLVM 12.0.0, 256 bits)]  bugsbn1=0  bugbilz=214  bugcopc=0  bugihfa=0\r\n[0 llvmpipe (LLVM 12.0.0, 256 bits)]  fp16-p/s/a=1/1/0  int8-p/s/a=1/1/0\r\n[0 llvmpipe (LLVM 12.0.0, 256 bits)]  subgroup=8  basic=1  vote=1  ballot=1  shuffle=0\r\nWARNING: lavapipe is not a conformant vulkan implementation, testing use only.\r\nInvalid bitcast\r\n  %379 = bitcast i32 %378 to i16\r\nLLVM ERROR: Broken function\r\nInvalid bitcast\r\n  %379 = bitcast i32 %378 to i16\r\nLLVM ERROR: Broken function\r\n23:39:18.478249 | ERROR    | process died unexpectedly\r\nTraceback (most recent call last):\r\n\r\n  File \"run_video2x.py\", line 7, in <module>\r\n    video2x.upscale(\r\n    |       -> <function Video2X.upscale at 0x7efe83fdd0d0>\r\n    -> <video2x.video2x.video2x.Video2X object at 0x7efe913acc10>\r\n\r\n  File \"/root/video2x/video2x/video2x.py\", line 410, in upscale\r\n    self._run(\r\n    |    -> <function Video2X._run at 0x7efe83fdd040>\r\n    -> <video2x.video2x.video2x.Video2X object at 0x7efe913acc10>\r\n\r\n> File \"/root/video2x/video2x/video2x.py\", line 307, in _run\r\n    raise Exception(\"process died unexpectedly\")\r\n\r\nException: process died unexpectedly\r\n23:39:18.494460 | INFO     | Stopping processor processes`","closed_by":{"login":"k4yt3x","id":21986859,"node_id":"MDQ6VXNlcjIxOTg2ODU5","avatar_url":"https://avatars.githubusercontent.com/u/21986859?v=4","gravatar_id":"","url":"https://api.github.com/users/k4yt3x","html_url":"https://github.com/k4yt3x","followers_url":"https://api.github.com/users/k4yt3x/followers","following_url":"https://api.github.com/users/k4yt3x/following{/other_user}","gists_url":"https://api.github.com/users/k4yt3x/gists{/gist_id}","starred_url":"https://api.github.com/users/k4yt3x/starred{/owner}{/repo}","subscriptions_url":"https://api.github.com/users/k4yt3x/subscriptions","organizations_url":"https://api.github.com/users/k4yt3x/orgs","repos_url":"https://api.github.com/users/k4yt3x/repos","events_url":"https://api.github.com/users/k4yt3x/events{/privacy}","received_events_url":"https://api.github.com/users/k4yt3x/received_events","type":"User","site_admin":false},"reactions":{"url":"https://api.github.com/repos/k4yt3x/video2x/issues/676/reactions","total_count":0,"+1":0,"-1":0,"laugh":0,"hooray":0,"confused":0,"heart":0,"rocket":0,"eyes":0},"timeline_url":"https://api.github.com/repos/k4yt3x/video2x/issues/676/timeline","performed_via_github_app":null,"state_reason":"completed"}